<svg version="1.1" id="Layer_1" xmlns="http://www.w3.org/2000/svg" xmlns:xlink="http://www.w3.org/1999/xlink" x="0px" y="0px"
	 width="100%" viewBox="0 0 262 256" enable-background="new 0 0 262 256" xml:space="preserve">
<path fill="#111111" opacity="1.000000" stroke="none" 
	d="
M38.000000,257.000000 
	C25.689566,257.000000 13.379131,257.000000 1.000000,257.000000 
	C1.000000,190.979126 1.000000,124.958221 1.334120,58.397575 
	C3.421019,56.245251 5.173799,54.632660 6.946998,53.486382 
	C7.010022,74.959282 7.052627,95.965874 7.063003,117.443161 
	C7.020633,153.312408 6.502898,188.721283 7.223457,224.104950 
	C7.562457,240.751816 14.272370,248.473663 29.467695,253.014664 
	C32.581738,253.446899 35.306232,253.788223 38.022675,254.488281 
	C38.009750,255.564682 38.004875,256.282349 38.000000,257.000000 
z"/>
<path fill="#111111" opacity="1.000000" stroke="none" 
	d="
M263.000000,67.000000 
	C263.000000,130.333359 263.000000,193.666718 263.000000,257.000000 
	C254.570175,257.000000 246.253754,257.000000 237.468689,256.596558 
	C237.000748,255.117310 237.001419,254.041458 237.238434,252.726593 
	C239.057251,251.609238 240.696243,250.818314 242.212524,249.837616 
	C249.198410,245.319336 254.876892,239.818481 256.157440,230.612961 
	C256.545959,227.762604 256.959625,225.294846 256.963379,222.826462 
	C257.044220,169.566147 257.079285,116.305771 257.432556,63.137756 
	C259.494629,64.486748 261.247314,65.743378 263.000000,67.000000 
z"/>
<path fill="#1D1D1D" opacity="1.000000" stroke="none" 
	d="
M1.000000,21.000000 
	C1.000000,14.346037 1.000000,7.692073 1.000000,1.000000 
	C70.687553,1.000000 140.375122,1.000000 210.531769,1.375747 
	C211.001572,2.502988 211.002319,3.254483 210.534058,4.009504 
	C153.995163,4.013659 97.923355,4.266058 41.856705,3.839687 
	C27.660002,3.731725 17.167542,8.951217 8.829892,19.899673 
	C6.031058,20.110821 3.515529,20.555410 1.000000,21.000000 
z"/>
<path fill="#080808" opacity="1.000000" stroke="none" 
	d="
M237.002106,252.965637 
	C237.001419,254.041458 237.000748,255.117310 237.000031,256.596558 
	C170.979111,257.000000 104.958214,257.000000 38.468658,257.000000 
	C38.004875,256.282349 38.009750,255.564682 38.487770,254.456665 
	C101.168861,254.043915 163.376816,254.036789 225.584686,253.954147 
	C228.702393,253.949997 231.819199,253.291595 235.280548,252.959229 
	C236.083801,252.975616 236.542953,252.970627 237.002106,252.965637 
z"/>
<path fill="#242424" opacity="1.000000" stroke="none" 
	d="
M211.003052,4.005977 
	C211.002319,3.254483 211.001572,2.502988 211.000427,1.375747 
	C228.244675,1.000000 245.489365,1.000000 263.000000,1.000000 
	C263.000000,12.019470 263.000000,23.041077 262.667786,34.465431 
	C260.581940,33.923244 258.828278,32.978310 257.046753,31.626431 
	C256.632233,29.263750 256.488251,27.220230 255.817963,25.367104 
	C252.488617,16.162687 247.069305,8.346787 237.073273,6.307170 
	C228.580276,4.574235 219.707687,4.701673 211.003052,4.005977 
z"/>
<path fill="#191919" opacity="1.000000" stroke="none" 
	d="
M1.000000,21.468658 
	C3.515529,20.555410 6.031058,20.110821 8.783070,20.287285 
	C8.321893,31.612249 7.624236,42.316162 6.926578,53.020073 
	C5.173799,54.632660 3.421019,56.245251 1.334120,57.928917 
	C1.000000,45.979103 1.000000,33.958210 1.000000,21.468658 
z"/>
<path fill="#1C1C1C" opacity="1.000000" stroke="none" 
	d="
M257.074646,32.033375 
	C258.828278,32.978310 260.581940,33.923244 262.667786,34.934090 
	C263.000000,45.354229 263.000000,55.708454 263.000000,66.531342 
	C261.247314,65.743378 259.494629,64.486748 257.395813,62.665592 
	C257.057983,52.078506 257.066315,42.055939 257.074646,32.033375 
z"/>
<path fill="#363636" opacity="1.000000" stroke="none" 
	d="
M257.046753,31.626431 
	C257.066315,42.055939 257.057983,52.078506 257.086426,62.573235 
	C257.079285,116.305771 257.044220,169.566147 256.963379,222.826462 
	C256.959625,225.294846 256.545959,227.762604 255.836655,230.610779 
	C254.922348,230.981171 254.494553,230.971436 254.136230,230.555084 
	C254.472183,228.182449 254.969055,226.216599 254.970551,224.250397 
	C254.992096,195.835403 254.947113,167.420334 254.942154,138.536743 
	C254.948135,113.717697 254.930038,89.367195 254.936096,64.546585 
	C254.965195,54.412079 255.133270,44.744389 254.937561,35.084061 
	C254.629288,19.866398 242.610611,7.924964 227.600769,7.962644 
	C225.231369,7.584381 223.272552,7.053557 221.312668,7.049703 
	C200.542984,7.008858 179.773117,7.051838 158.602936,7.054008 
	C157.134125,7.047934 156.065720,7.059581 154.529327,7.061532 
	C148.043472,7.066512 142.025604,7.081186 135.538910,7.078654 
	C101.769249,7.366892 68.468285,7.884581 35.167637,7.865057 
	C23.174690,7.858027 8.935160,20.124908 8.992807,35.511429 
	C9.052122,51.342342 9.015668,67.173615 9.013966,83.472824 
	C8.997419,94.956078 8.988027,105.971230 8.664257,116.987663 
	C7.931664,116.983452 7.513448,116.977951 7.095232,116.972458 
	C7.052627,95.965874 7.010022,74.959282 6.946997,53.486382 
	C7.624236,42.316162 8.321893,31.612249 9.066374,20.520725 
	C17.167542,8.951217 27.660002,3.731725 41.856705,3.839687 
	C97.923355,4.266058 153.995163,4.013659 210.534058,4.009503 
	C219.707687,4.701673 228.580276,4.574235 237.073273,6.307170 
	C247.069305,8.346787 252.488617,16.162687 255.817963,25.367104 
	C256.488251,27.220230 256.632233,29.263750 257.046753,31.626431 
z"/>
<path fill="#3B3B3B" opacity="1.000000" stroke="none" 
	d="
M234.936432,252.937836 
	C231.819199,253.291595 228.702393,253.949997 225.584686,253.954147 
	C163.376816,254.036789 101.168861,254.043915 38.495823,254.097916 
	C35.306232,253.788223 32.581738,253.446899 29.636948,252.806946 
	C29.960312,252.033691 30.503973,251.559082 31.402103,251.131866 
	C33.168156,251.419662 34.579739,251.660065 36.460052,251.922043 
	C56.289009,251.932327 75.649231,251.921066 95.477119,251.929718 
	C139.298889,251.972015 182.653030,252.007370 226.007111,251.980484 
	C228.306015,251.979050 230.604584,251.451309 233.105621,251.350586 
	C233.850769,252.000992 234.393600,252.469406 234.936432,252.937836 
z"/>
<path fill="#2E2E2E" opacity="1.000000" stroke="none" 
	d="
M31.047634,251.084473 
	C30.503973,251.559082 29.960312,252.033691 29.247402,252.716019 
	C14.272370,248.473663 7.562457,240.751816 7.223457,224.104950 
	C6.502898,188.721283 7.020633,153.312408 7.063003,117.443161 
	C7.513448,116.977951 7.931664,116.983452 8.673229,117.457779 
	C9.008868,129.287674 9.021156,140.648727 9.026054,152.477310 
	C9.021393,174.631500 9.024123,196.318146 9.021389,218.436081 
	C9.347110,221.911362 9.678294,224.955368 10.007114,228.374817 
	C10.024604,229.500626 10.044456,230.250992 10.118873,231.355713 
	C13.291095,242.305908 20.969627,247.987808 31.047634,251.084473 
z"/>
<path fill="#2A2A2A" opacity="1.000000" stroke="none" 
	d="
M235.280548,252.959229 
	C234.393600,252.469406 233.850769,252.000992 233.475616,251.238464 
	C244.319077,248.236755 250.904572,241.348633 254.066772,230.961700 
	C254.494553,230.971436 254.922348,230.981171 255.670929,230.993088 
	C254.876892,239.818481 249.198410,245.319336 242.212524,249.837616 
	C240.696243,250.818314 239.057251,251.609238 237.238434,252.726593 
	C236.542953,252.970627 236.083801,252.975616 235.280548,252.959229 
z"/>
<path fill="#191919" opacity="1.000000" stroke="none" 
	d="
M254.136230,230.555084 
	C250.904572,241.348633 244.319077,248.236755 233.273315,251.056473 
	C230.604584,251.451309 228.306015,251.979050 226.007111,251.980484 
	C182.653030,252.007370 139.298889,251.972015 95.445007,251.579742 
	C94.147339,250.228149 93.271339,249.298676 92.571579,248.251419 
	C91.725365,246.984909 90.484322,245.622192 90.475815,244.294327 
	C90.470909,243.527664 92.645363,242.847015 93.685577,241.949860 
	C95.182693,240.658630 97.401299,239.412643 97.793465,237.782150 
	C98.904343,233.163422 101.310196,233.716675 104.436981,235.292160 
	C111.000114,238.599136 113.693306,237.162857 113.950768,229.964096 
	C114.066383,226.731308 115.080963,225.172455 118.562744,224.935837 
	C130.947586,224.094238 143.306107,222.850861 155.694931,222.091507 
	C159.102356,221.882660 160.608856,220.622314 161.803635,217.535873 
	C162.549103,215.610184 164.549438,213.294357 166.410904,212.820587 
	C177.419586,210.018738 185.090103,202.376617 192.223770,194.548111 
	C196.024475,190.377182 203.870117,189.106461 203.132751,181.166534 
	C203.105515,180.873169 203.973053,180.581436 204.179169,180.167297 
	C205.169632,178.177078 206.437912,176.230148 206.936676,174.110031 
	C207.964844,169.739395 209.075394,165.836624 214.353867,164.685013 
	C215.379272,164.461304 216.638611,161.990738 216.555115,160.632446 
	C216.314972,156.725388 217.940369,154.953781 221.554489,153.843582 
	C223.257263,153.320526 225.120178,151.544632 225.819260,149.878525 
	C227.548996,145.756073 228.828537,145.108307 232.764954,147.265839 
	C234.164459,148.032898 235.793289,148.849945 237.294937,148.809433 
	C238.432846,148.778748 239.535034,147.424103 240.653122,146.658615 
	C239.811752,145.802063 239.078903,144.779877 238.097549,144.136978 
	C237.173294,143.531479 235.519379,143.623917 235.036987,142.867142 
	C234.460159,141.962250 234.515884,139.480865 234.765701,139.413330 
	C236.353561,138.983978 238.368790,138.414352 239.684418,139.049103 
	C242.631271,140.470901 245.160629,141.774033 248.559753,140.000702 
	C250.361832,139.060562 252.778732,139.298935 254.918091,139.005295 
	C254.947113,167.420334 254.992096,195.835403 254.970551,224.250397 
	C254.969055,226.216599 254.472183,228.182449 254.136230,230.555084 
z"/>
<path fill="#262626" opacity="1.000000" stroke="none" 
	d="
M9.021120,83.004730 
	C9.015668,67.173615 9.052122,51.342342 8.992807,35.511429 
	C8.935160,20.124908 23.174690,7.858027 35.167637,7.865057 
	C68.468285,7.884581 101.769249,7.366892 135.451416,7.431091 
	C134.135223,8.862005 132.517410,10.630756 130.723053,10.832947 
	C127.297318,11.218966 123.729446,10.993164 120.299728,10.486008 
	C117.621910,10.090037 116.104820,10.336110 115.960724,13.405453 
	C115.790466,17.032209 113.762085,18.994982 110.285866,20.076607 
	C108.819092,20.532993 107.675850,22.220154 106.586983,23.516989 
	C106.399681,23.740068 107.401062,25.439968 107.555183,25.396658 
	C109.046921,24.977453 110.601692,24.532776 111.899239,23.715553 
	C117.522255,20.174053 123.755936,22.318913 123.778557,28.400192 
	C123.800369,34.262543 127.467323,34.869812 131.569916,36.054054 
	C134.089523,36.781357 136.335541,38.425297 138.744553,39.573349 
	C144.143463,42.146282 148.124390,47.906239 155.301971,46.676376 
	C156.310043,46.503647 158.862549,48.760014 158.727493,49.558258 
	C157.778641,55.166920 162.063538,57.614571 165.464447,59.349297 
	C170.272812,61.801926 172.135590,65.385170 172.610260,70.045807 
	C157.453949,60.739037 141.538300,55.910740 123.948387,58.051765 
	C111.696747,59.543026 100.470268,63.669586 90.418922,71.025482 
	C78.078621,80.056503 69.947556,92.151329 63.750069,105.883667 
	C58.641895,97.467934 60.354237,88.786278 62.280457,80.281799 
	C63.027069,76.985420 62.933987,75.196533 59.379845,74.624542 
	C57.923985,74.390236 56.459988,74.206459 54.999847,73.999847 
	C55.000000,74.000000 55.000305,74.000305 55.000210,73.533760 
	C54.999001,69.918251 55.111771,66.763222 54.944313,63.623127 
	C54.870701,62.242798 54.226448,60.892902 53.841290,59.529186 
	C52.379208,60.008198 50.890804,60.420521 49.462215,60.984390 
	C47.939632,61.585358 46.444683,62.273434 44.988815,63.022850 
	C41.796238,64.666260 36.479897,65.813904 35.872360,68.159149 
	C34.145489,74.825333 28.182129,75.132683 24.025267,77.640266 
	C19.567406,80.329422 14.066713,81.289864 9.021120,83.004730 
z"/>
<path fill="#1C1C1C" opacity="1.000000" stroke="none" 
	d="
M254.942154,138.536743 
	C252.778732,139.298935 250.361832,139.060562 248.559753,140.000702 
	C245.160629,141.774033 242.631271,140.470901 239.684418,139.049103 
	C238.368790,138.414352 236.353561,138.983978 234.765701,139.413330 
	C234.515884,139.480865 234.460159,141.962250 235.036987,142.867142 
	C235.519379,143.623917 237.173294,143.531479 238.097549,144.136978 
	C239.078903,144.779877 239.811752,145.802063 240.653122,146.658615 
	C239.535034,147.424103 238.432846,148.778748 237.294937,148.809433 
	C235.793289,148.849945 234.164459,148.032898 232.764954,147.265839 
	C228.828537,145.108307 227.548996,145.756073 225.819260,149.878525 
	C225.120178,151.544632 223.257263,153.320526 221.554489,153.843582 
	C217.940369,154.953781 216.314972,156.725388 216.555115,160.632446 
	C216.638611,161.990738 215.379272,164.461304 214.353867,164.685013 
	C209.075394,165.836624 207.964844,169.739395 206.936676,174.110031 
	C206.437912,176.230148 205.169632,178.177078 204.179169,180.167297 
	C203.973053,180.581436 203.105515,180.873169 203.132751,181.166534 
	C203.870117,189.106461 196.024475,190.377182 192.223770,194.548111 
	C185.090103,202.376617 177.419586,210.018738 166.410904,212.820587 
	C164.549438,213.294357 162.549103,215.610184 161.803635,217.535873 
	C160.608856,220.622314 159.102356,221.882660 155.694931,222.091507 
	C143.306107,222.850861 130.947586,224.094238 118.562744,224.935837 
	C115.080963,225.172455 114.066383,226.731308 113.950768,229.964096 
	C113.693306,237.162857 111.000114,238.599136 104.436981,235.292160 
	C101.310196,233.716675 98.904343,233.163422 97.793465,237.782150 
	C97.401299,239.412643 95.182693,240.658630 93.685577,241.949860 
	C92.645363,242.847015 90.470909,243.527664 90.475815,244.294327 
	C90.484322,245.622192 91.725365,246.984909 92.571579,248.251419 
	C93.271339,249.298676 94.147339,250.228149 94.977356,251.559814 
	C75.649231,251.921066 56.289009,251.932327 36.341339,251.604004 
	C34.949314,249.463196 34.144733,247.662018 33.340157,245.860825 
	C38.400002,243.661911 40.920258,238.796143 44.633144,235.181046 
	C45.020588,234.803802 46.005402,235.116058 46.555641,234.817902 
	C50.613987,232.618729 57.435352,234.459869 57.990711,226.944595 
	C58.043221,226.234024 60.067909,225.626755 61.217396,225.052444 
	C62.224392,224.549316 63.953362,224.406631 64.222168,223.681595 
	C66.445892,217.683777 72.383728,218.932755 76.665062,216.984818 
	C78.167900,216.301056 80.460648,215.461197 80.736008,214.299820 
	C81.919487,209.308136 85.193214,209.528610 88.821396,210.513397 
	C91.217682,211.163818 93.474846,212.309677 95.843590,213.082642 
	C99.623466,214.316101 103.181656,215.023560 106.035156,210.862717 
	C106.803802,209.741928 109.528297,208.884766 110.808502,209.364594 
	C120.231888,212.896606 129.521179,210.067001 138.867371,209.317368 
	C142.295578,209.042419 144.890091,208.236359 145.986115,204.454025 
	C146.287521,203.413864 148.114578,202.557587 149.411392,202.118271 
	C152.044662,201.226212 154.770294,200.557220 157.501602,200.017639 
	C160.427460,199.439636 159.792740,197.780167 159.238525,195.737457 
	C161.321884,194.671860 163.153366,193.823105 165.228729,193.173218 
	C166.314667,192.580322 167.156723,191.788574 168.171753,190.735840 
	C169.232483,189.997757 170.120239,189.520676 171.109940,189.348114 
	C175.573547,191.997940 175.407486,188.501343 176.152252,185.674683 
	C178.282059,183.373474 180.145584,181.252945 182.212234,179.353409 
	C193.253860,169.204666 199.241531,156.407776 202.023483,141.724243 
	C202.025925,141.546356 202.023575,141.190567 202.135086,140.869537 
	C202.516006,138.033127 202.785416,135.517746 203.385590,132.868027 
	C204.668594,128.840942 205.205063,124.778267 206.704758,121.109306 
	C207.901031,118.182602 209.831009,114.095268 212.221939,113.453430 
	C215.980804,112.444389 217.091232,110.606323 217.627533,107.490059 
	C218.134262,104.545670 218.465805,101.567764 219.064362,98.643478 
	C219.686615,95.603416 219.581436,91.553894 221.493546,89.824783 
	C225.034958,86.622261 224.953812,79.769943 231.553162,79.640678 
	C232.022141,79.631500 232.740585,78.055374 232.865265,77.142578 
	C233.562088,72.041542 236.751373,72.376213 240.166611,73.881683 
	C246.852768,76.829018 248.909607,75.773766 251.124374,68.575279 
	C251.566956,67.136810 253.607971,66.190140 254.911957,65.016701 
	C254.930038,89.367195 254.948135,113.717697 254.942154,138.536743 
z"/>
<path fill="#1F1F1F" opacity="1.000000" stroke="none" 
	d="
M202.023575,141.190567 
	C202.023575,141.190567 202.025925,141.546356 201.665176,141.819427 
	C200.421326,143.567139 199.156860,144.935730 198.712814,146.532455 
	C192.838730,167.655151 180.035645,182.891495 160.053436,191.884735 
	C155.237839,194.052048 150.022110,195.330353 144.586609,197.022705 
	C141.790405,197.330383 139.397995,197.632858 136.873505,197.610321 
	C134.274521,196.093140 131.807602,194.900970 129.340683,193.708801 
	C129.421112,193.222610 129.501526,192.736435 129.581955,192.250244 
	C131.237686,191.832199 132.876968,191.325623 134.552521,191.014099 
	C138.292252,190.318802 142.399994,190.476852 145.731827,188.934753 
	C154.145218,185.040741 162.663025,181.100922 168.403000,173.181564 
	C174.604828,164.625000 181.839279,156.687851 187.043137,147.577881 
	C191.197952,140.304352 193.027847,131.692062 195.759521,123.629890 
	C196.100266,122.624237 195.843552,121.288124 195.518646,120.209030 
	C194.550964,116.995232 195.907288,115.854019 199.097504,116.289017 
	C199.514984,117.372726 199.786148,118.171944 199.807800,119.207245 
	C197.870239,121.838440 197.178329,123.982513 201.055725,125.288086 
	C201.294632,126.790878 201.436340,128.005219 201.578033,129.219559 
	C202.069534,129.180313 202.561020,129.141083 203.052521,129.101837 
	C202.658279,124.320297 202.918686,119.364677 201.705078,114.801033 
	C200.168060,109.021271 197.432510,103.560234 195.165833,97.631943 
	C195.091736,97.081482 195.065643,96.860832 194.894836,96.428673 
	C194.286850,95.550667 193.823578,94.884171 193.275848,93.852325 
	C193.119202,92.992325 193.046982,92.497665 193.185547,91.740868 
	C193.502075,87.021294 193.696152,82.563049 193.655441,78.106949 
	C193.644394,76.897110 193.080505,75.612892 192.504089,74.500832 
	C189.258698,68.239471 188.685913,61.954781 191.934097,55.493225 
	C192.426086,54.514526 192.829269,53.266380 192.679611,52.228519 
	C192.002472,47.532944 190.990936,42.885181 190.329559,38.187851 
	C189.529892,32.508385 193.754669,28.994429 199.290787,30.642988 
	C201.249420,31.226233 203.134705,32.055679 205.726410,33.024197 
	C205.801071,27.210493 207.115448,22.766720 212.970535,21.565458 
	C213.342163,21.489212 213.630310,20.860985 213.899353,20.451481 
	C218.702835,13.139793 218.681946,13.192360 226.658218,16.002506 
	C227.628006,16.344173 229.504440,16.110868 229.937805,15.461469 
	C230.457703,14.682351 230.059219,13.119202 229.732147,11.990074 
	C229.337158,10.626513 228.599945,9.362081 228.010864,8.054741 
	C242.610611,7.924964 254.629288,19.866398 254.937561,35.084061 
	C255.133270,44.744389 254.965195,54.412079 254.936096,64.546585 
	C253.607971,66.190140 251.566956,67.136810 251.124374,68.575279 
	C248.909607,75.773766 246.852768,76.829018 240.166611,73.881683 
	C236.751373,72.376213 233.562088,72.041542 232.865265,77.142578 
	C232.740585,78.055374 232.022141,79.631500 231.553162,79.640678 
	C224.953812,79.769943 225.034958,86.622261 221.493546,89.824783 
	C219.581436,91.553894 219.686615,95.603416 219.064362,98.643478 
	C218.465805,101.567764 218.134262,104.545670 217.627533,107.490059 
	C217.091232,110.606323 215.980804,112.444389 212.221939,113.453430 
	C209.831009,114.095268 207.901031,118.182602 206.704758,121.109306 
	C205.205063,124.778267 204.668594,128.840942 203.115112,132.714264 
	C202.350433,135.526764 202.186996,138.358673 202.023575,141.190567 
z"/>
<path fill="#232323" opacity="1.000000" stroke="none" 
	d="
M227.600769,7.962644 
	C228.599945,9.362081 229.337158,10.626513 229.732147,11.990074 
	C230.059219,13.119202 230.457703,14.682351 229.937805,15.461469 
	C229.504440,16.110868 227.628006,16.344173 226.658218,16.002506 
	C218.681946,13.192360 218.702835,13.139793 213.899353,20.451481 
	C213.630310,20.860985 213.342163,21.489212 212.970535,21.565458 
	C207.115448,22.766720 205.801071,27.210493 205.726410,33.024197 
	C203.134705,32.055679 201.249420,31.226233 199.290787,30.642988 
	C193.754669,28.994429 189.529892,32.508385 190.329559,38.187851 
	C190.990936,42.885181 192.002472,47.532944 192.679611,52.228519 
	C192.829269,53.266380 192.426086,54.514526 191.934097,55.493225 
	C188.685913,61.954781 189.258698,68.239471 192.504089,74.500832 
	C193.080505,75.612892 193.644394,76.897110 193.655441,78.106949 
	C193.696152,82.563049 193.502075,87.021294 192.939514,91.514694 
	C187.482574,83.036522 180.517792,76.315201 172.949066,70.145004 
	C172.135590,65.385170 170.272812,61.801926 165.464447,59.349297 
	C162.063538,57.614571 157.778641,55.166920 158.727493,49.558258 
	C158.862549,48.760014 156.310043,46.503647 155.301971,46.676376 
	C148.124390,47.906239 144.143463,42.146282 138.744553,39.573349 
	C136.335541,38.425297 134.089523,36.781357 131.569916,36.054054 
	C127.467323,34.869812 123.800369,34.262543 123.778557,28.400192 
	C123.755936,22.318913 117.522255,20.174053 111.899239,23.715553 
	C110.601692,24.532776 109.046921,24.977453 107.555183,25.396658 
	C107.401062,25.439968 106.399681,23.740068 106.586983,23.516989 
	C107.675850,22.220154 108.819092,20.532993 110.285866,20.076607 
	C113.762085,18.994982 115.790466,17.032209 115.960724,13.405453 
	C116.104820,10.336110 117.621910,10.090037 120.299728,10.486008 
	C123.729446,10.993164 127.297318,11.218966 130.723053,10.832947 
	C132.517410,10.630756 134.135223,8.862005 135.920258,7.448298 
	C142.025604,7.081186 148.043472,7.066512 154.641449,7.361449 
	C156.482147,7.471284 157.742737,7.271507 159.003311,7.071730 
	C179.773117,7.051838 200.542984,7.008858 221.312668,7.049703 
	C223.272552,7.053557 225.231369,7.584381 227.600769,7.962644 
z"/>
<path fill="#232323" opacity="1.000000" stroke="none" 
	d="
M54.999695,73.999695 
	C56.459988,74.206459 57.923985,74.390236 59.379845,74.624542 
	C62.933987,75.196533 63.027069,76.985420 62.280457,80.281799 
	C60.354237,88.786278 58.641895,97.467934 63.708702,106.280083 
	C59.704742,121.536308 59.642910,136.267136 63.673416,150.927231 
	C61.826008,149.271515 60.323154,147.686203 59.565037,146.886490 
	C55.401901,147.825607 51.171574,150.021362 47.844097,149.067535 
	C45.829952,148.490143 45.201656,143.037186 43.986378,139.761520 
	C43.818310,139.308502 43.903233,138.768051 43.790482,138.286957 
	C43.187275,135.713211 41.450466,134.188339 39.106667,135.597168 
	C34.829479,138.168106 28.798752,138.529846 27.090052,144.605865 
	C26.885727,145.332428 26.217932,146.270859 25.565607,146.475433 
	C20.018658,148.215042 15.590767,153.329636 9.033445,152.009781 
	C9.021156,140.648727 9.008868,129.287674 8.987607,117.456497 
	C8.988027,105.971230 8.997419,94.956078 9.013966,83.472824 
	C14.066713,81.289864 19.567406,80.329422 24.025267,77.640266 
	C28.182129,75.132683 34.145489,74.825333 35.872360,68.159149 
	C36.479897,65.813904 41.796238,64.666260 44.988815,63.022850 
	C46.444683,62.273434 47.939632,61.585358 49.462215,60.984390 
	C50.890804,60.420521 52.379208,60.008198 53.841290,59.529186 
	C54.226448,60.892902 54.870701,62.242798 54.944313,63.623127 
	C55.111771,66.763222 54.999001,69.918251 54.679901,73.650482 
	C53.973576,75.435684 53.587467,76.637619 53.201355,77.839546 
	C53.673954,77.917099 54.146553,77.994644 54.619152,78.072197 
	C54.745998,76.714699 54.872849,75.357193 54.999695,73.999695 
z"/>
<path fill="#262626" opacity="1.000000" stroke="none" 
	d="
M158.602936,7.054008 
	C157.742737,7.271507 156.482147,7.471284 155.109436,7.371144 
	C156.065720,7.059581 157.134125,7.047934 158.602936,7.054008 
z"/>
<path fill="#1D1D1D" opacity="1.000000" stroke="none" 
	d="
M158.986633,195.954315 
	C159.792740,197.780167 160.427460,199.439636 157.501602,200.017639 
	C154.770294,200.557220 152.044662,201.226212 149.411392,202.118271 
	C148.114578,202.557587 146.287521,203.413864 145.986115,204.454025 
	C144.890091,208.236359 142.295578,209.042419 138.867371,209.317368 
	C129.521179,210.067001 120.231888,212.896606 110.808502,209.364594 
	C109.528297,208.884766 106.803802,209.741928 106.035156,210.862717 
	C103.181656,215.023560 99.623466,214.316101 95.843590,213.082642 
	C93.474846,212.309677 91.217682,211.163818 88.821396,210.513397 
	C85.193214,209.528610 81.919487,209.308136 80.736008,214.299820 
	C80.460648,215.461197 78.167900,216.301056 76.665062,216.984818 
	C72.383728,218.932755 66.445892,217.683777 64.222168,223.681595 
	C63.953362,224.406631 62.224392,224.549316 61.217396,225.052444 
	C60.067909,225.626755 58.043221,226.234024 57.990711,226.944595 
	C57.435352,234.459869 50.613987,232.618729 46.555641,234.817902 
	C46.005402,235.116058 45.020588,234.803802 44.633144,235.181046 
	C40.920258,238.796143 38.400002,243.661911 33.340157,245.860825 
	C34.144733,247.662018 34.949314,249.463196 35.872604,251.582428 
	C34.579739,251.660065 33.168156,251.419662 31.402103,251.131866 
	C20.969627,247.987808 13.291095,242.305908 10.404552,231.262238 
	C10.426938,229.876038 10.218207,228.937714 10.009478,227.999374 
	C9.678294,224.955368 9.347110,221.911362 9.457368,218.434631 
	C13.852874,218.011917 18.235508,218.885574 18.555674,212.691254 
	C18.601007,211.814148 20.257858,210.770721 21.375696,210.240036 
	C27.637270,207.267410 33.983543,204.472931 40.237865,201.485657 
	C40.985535,201.128540 41.742992,200.009399 41.824699,199.177551 
	C42.157269,195.791519 43.890816,194.149185 47.243317,193.812836 
	C48.066460,193.730270 49.446430,192.798325 49.475010,192.204163 
	C49.711739,187.283386 53.130333,186.291595 57.016602,185.162033 
	C61.566586,183.839539 63.009155,184.359146 63.919544,188.968811 
	C65.043823,194.661514 69.256592,197.057068 74.778206,195.086655 
	C77.717545,194.037720 80.553215,192.542633 83.573318,191.948624 
	C84.866341,191.694305 86.563911,193.131073 87.979744,193.965622 
	C89.516212,194.871262 90.810837,196.350983 92.440041,196.898148 
	C95.062477,197.778885 97.949097,197.864914 100.583786,198.719345 
	C103.573883,199.689026 106.019051,199.422348 108.307297,196.957504 
	C108.538429,196.962021 109.001747,196.984970 109.042923,197.367432 
	C113.018097,199.026306 116.944557,200.328140 120.908401,201.503937 
	C121.106361,201.562668 121.628616,200.528137 122.468483,199.997162 
	C130.304321,199.680771 137.671539,199.369858 145.437744,199.040741 
	C150.220032,197.999817 154.603333,196.977066 158.986633,195.954315 
z"/>
<path fill="#1F1F1F" opacity="1.000000" stroke="none" 
	d="
M108.076157,196.952988 
	C106.019051,199.422348 103.573883,199.689026 100.583786,198.719345 
	C97.949097,197.864914 95.062477,197.778885 92.440041,196.898148 
	C90.810837,196.350983 89.516212,194.871262 87.979744,193.965622 
	C86.563911,193.131073 84.866341,191.694305 83.573318,191.948624 
	C80.553215,192.542633 77.717545,194.037720 74.778206,195.086655 
	C69.256592,197.057068 65.043823,194.661514 63.919544,188.968811 
	C63.009155,184.359146 61.566586,183.839539 57.016602,185.162033 
	C53.130333,186.291595 49.711739,187.283386 49.475010,192.204163 
	C49.446430,192.798325 48.066460,193.730270 47.243317,193.812836 
	C43.890816,194.149185 42.157269,195.791519 41.824699,199.177551 
	C41.742992,200.009399 40.985535,201.128540 40.237865,201.485657 
	C33.983543,204.472931 27.637270,207.267410 21.375696,210.240036 
	C20.257858,210.770721 18.601007,211.814148 18.555674,212.691254 
	C18.235508,218.885574 13.852874,218.011917 9.462833,218.003357 
	C9.024123,196.318146 9.021393,174.631500 9.026054,152.477310 
	C15.590767,153.329636 20.018658,148.215042 25.565607,146.475433 
	C26.217932,146.270859 26.885727,145.332428 27.090052,144.605865 
	C28.798752,138.529846 34.829479,138.168106 39.106667,135.597168 
	C41.450466,134.188339 43.187275,135.713211 43.790482,138.286957 
	C43.903233,138.768051 43.818310,139.308502 43.986378,139.761520 
	C45.201656,143.037186 45.829952,148.490143 47.844097,149.067535 
	C51.171574,150.021362 55.401901,147.825607 59.565037,146.886490 
	C60.323154,147.686203 61.826008,149.271515 63.747574,151.200348 
	C64.453987,152.022995 64.741692,152.502106 65.085022,153.342499 
	C70.776550,168.087265 79.278732,180.155273 93.114418,188.352722 
	C98.237602,191.401703 103.156876,194.177338 108.076157,196.952988 
z"/>
<path fill="#1F1F1F" opacity="1.000000" stroke="none" 
	d="
M10.007114,228.374817 
	C10.218207,228.937714 10.426938,229.876038 10.349989,230.907867 
	C10.044456,230.250992 10.024604,229.500626 10.007114,228.374817 
z"/>
<path fill="#474747" opacity="1.000000" stroke="none" 
	d="
M65.029388,152.981216 
	C64.741692,152.502106 64.453987,152.022995 64.092133,151.270752 
	C59.642910,136.267136 59.704742,121.536308 64.055992,106.408745 
	C69.947556,92.151329 78.078621,80.056503 90.418922,71.025482 
	C100.470268,63.669586 111.696747,59.543026 123.948387,58.051765 
	C141.538300,55.910740 157.453949,60.739037 172.610260,70.045807 
	C180.517792,76.315201 187.482574,83.036522 192.728745,91.776840 
	C193.046982,92.497665 193.119202,92.992325 192.899994,93.748886 
	C191.432129,92.702446 190.280441,91.370750 189.073868,90.090797 
	C186.753525,87.629349 184.402084,85.197212 181.879089,82.498436 
	C179.473663,80.134041 177.252686,78.024124 174.810654,75.665512 
	C172.091492,73.916313 169.593384,72.415802 166.897858,70.623260 
	C166.245071,69.856674 165.875153,69.214752 165.321732,68.932243 
	C153.925293,63.114437 141.981018,59.511246 128.606812,60.105621 
	C125.766006,60.407524 123.286011,60.484581 120.923988,61.052387 
	C113.889122,62.743481 106.235283,62.908768 100.437408,68.827728 
	C87.473663,73.774040 78.902702,82.909203 72.632126,94.970108 
	C66.627647,103.208427 64.201462,112.264198 63.830711,122.362930 
	C63.535267,124.487785 63.312244,126.241241 63.069515,128.330704 
	C63.061607,129.115280 63.073406,129.563843 63.062927,130.462341 
	C64.358749,138.274673 65.676842,145.637085 66.667236,152.999802 
	C65.902824,152.993805 65.466103,152.987518 65.029388,152.981216 
z"/>
<path fill="#2E2E2E" opacity="1.000000" stroke="none" 
	d="
M159.238525,195.737457 
	C154.603333,196.977066 150.220032,197.999817 145.427246,198.699814 
	C145.008652,197.923874 144.999527,197.470673 144.990402,197.017487 
	C150.022110,195.330353 155.237839,194.052048 160.053436,191.884735 
	C180.035645,182.891495 192.838730,167.655151 198.712814,146.532455 
	C199.156860,144.935730 200.421326,143.567139 201.662735,141.997314 
	C199.241531,156.407776 193.253860,169.204666 182.212234,179.353409 
	C180.145584,181.252945 178.282059,183.373474 175.828461,185.748505 
	C173.890747,187.084534 172.449371,188.064072 171.007996,189.043594 
	C170.120239,189.520676 169.232483,189.997757 167.861908,190.790421 
	C166.581009,191.728806 165.782913,192.351578 164.984833,192.974365 
	C163.153366,193.823105 161.321884,194.671860 159.238525,195.737457 
z"/>
<path fill="#1D1D1D" opacity="1.000000" stroke="none" 
	d="
M171.109940,189.348114 
	C172.449371,188.064072 173.890747,187.084534 175.655914,186.031158 
	C175.407486,188.501343 175.573547,191.997940 171.109940,189.348114 
z"/>
<path fill="#3B3B3B" opacity="1.000000" stroke="none" 
	d="
M202.135086,140.869537 
	C202.186996,138.358673 202.350433,135.526764 202.784332,132.848633 
	C202.785416,135.517746 202.516006,138.033127 202.135086,140.869537 
z"/>
<path fill="#1D1D1D" opacity="1.000000" stroke="none" 
	d="
M165.228729,193.173218 
	C165.782913,192.351578 166.581009,191.728806 167.688934,191.051422 
	C167.156723,191.788574 166.314667,192.580322 165.228729,193.173218 
z"/>
<path fill="#212121" opacity="1.000000" stroke="none" 
	d="
M198.951202,116.004524 
	C195.907288,115.854019 194.550964,116.995232 195.518646,120.209030 
	C195.843552,121.288124 196.100266,122.624237 195.759521,123.629890 
	C193.027847,131.692062 191.197952,140.304352 187.043137,147.577881 
	C181.839279,156.687851 174.604828,164.625000 168.403000,173.181564 
	C162.663025,181.100922 154.145218,185.040741 145.731827,188.934753 
	C142.399994,190.476852 138.292252,190.318802 134.552521,191.014099 
	C132.876968,191.325623 131.237686,191.832199 129.581955,192.250244 
	C129.501526,192.736435 129.421112,193.222610 129.340683,193.708801 
	C131.807602,194.900970 134.274521,196.093140 136.409042,197.631348 
	C125.875572,198.297607 115.893700,197.243607 106.477417,192.988647 
	C102.275658,191.089966 98.164299,188.991226 93.780708,186.745102 
	C89.547112,183.017532 84.879456,180.041504 81.697914,175.918671 
	C76.900909,169.702438 73.141953,162.685181 69.280762,155.953476 
	C73.725174,154.288040 75.253120,157.782028 77.228088,159.964691 
	C82.457932,165.744507 86.169876,173.362610 95.488937,173.874313 
	C96.824608,173.947647 98.069405,175.295334 99.396072,175.975601 
	C107.687859,180.227402 115.163979,185.489349 125.257530,186.502350 
	C137.442413,187.725250 147.210464,183.542709 156.206894,176.952698 
	C161.698990,172.929688 165.941605,167.136658 170.512390,161.933884 
	C179.246735,151.991867 183.423126,139.823288 187.075150,127.394455 
	C189.575668,118.884468 192.361938,110.458450 195.256912,102.264297 
	C196.645966,107.023964 197.798584,111.514244 198.951202,116.004524 
z"/>
<path fill="#232323" opacity="1.000000" stroke="none" 
	d="
M195.020477,101.994896 
	C192.361938,110.458450 189.575668,118.884468 187.075150,127.394455 
	C183.423126,139.823288 179.246735,151.991867 170.512390,161.933884 
	C165.941605,167.136658 161.698990,172.929688 156.206894,176.952698 
	C147.210464,183.542709 137.442413,187.725250 125.257530,186.502350 
	C115.163979,185.489349 107.687859,180.227402 99.396072,175.975601 
	C98.069405,175.295334 96.824608,173.947647 95.488937,173.874313 
	C86.169876,173.362610 82.457932,165.744507 77.228088,159.964691 
	C75.253120,157.782028 73.725174,154.288040 69.078156,155.731384 
	C68.022682,154.709305 67.508812,153.854401 66.994934,152.999512 
	C65.676842,145.637085 64.358749,138.274673 63.409569,130.538528 
	C68.069290,132.030853 72.626152,133.052811 73.971069,138.970001 
	C74.943024,143.246262 76.988960,147.842392 79.940781,151.002121 
	C89.998528,161.768265 99.519226,173.407150 113.915222,178.911285 
	C119.758614,181.145432 125.661415,183.771194 132.431458,180.862885 
	C133.430847,180.794296 134.086288,180.647522 135.026703,180.791931 
	C138.469955,180.751877 142.107925,181.314758 144.698334,179.925018 
	C153.125732,175.403793 160.886459,170.310837 166.904694,162.135208 
	C179.386520,145.178970 186.188751,126.615257 185.810730,105.722534 
	C185.671829,98.045906 183.375671,90.408318 182.063538,82.752922 
	C184.402084,85.197212 186.753525,87.629349 189.073868,90.090797 
	C190.280441,91.370750 191.432129,92.702446 192.984451,94.114227 
	C193.823578,94.884171 194.286850,95.550667 194.700439,96.632294 
	C194.451035,97.354790 194.251312,97.662155 194.173065,98.295326 
	C194.536530,99.745712 194.778503,100.870308 195.020477,101.994896 
z"/>
<path fill="#363636" opacity="1.000000" stroke="none" 
	d="
M94.011909,186.983292 
	C98.164299,188.991226 102.275658,191.089966 106.477417,192.988647 
	C115.893700,197.243607 125.875572,198.297607 136.541107,197.956360 
	C139.397995,197.632858 141.790405,197.330383 144.586609,197.022705 
	C144.999527,197.470673 145.008652,197.923874 145.028275,198.717987 
	C137.671539,199.369858 130.304321,199.680771 122.116745,199.840637 
	C117.198181,198.788055 113.099968,197.886520 109.001747,196.984970 
	C109.001747,196.984970 108.538429,196.962021 108.307297,196.957504 
	C103.156876,194.177338 98.237602,191.401703 93.324570,188.196259 
	C93.557846,187.505402 93.784874,187.244339 94.011909,186.983292 
z"/>
<path fill="#3B3B3B" opacity="1.000000" stroke="none" 
	d="
M195.256912,102.264297 
	C194.778503,100.870308 194.536530,99.745712 194.463409,98.296600 
	C194.826141,97.968628 195.019989,97.965179 195.213852,97.961739 
	C197.432510,103.560234 200.168060,109.021271 201.705078,114.801033 
	C202.918686,119.364677 202.658279,124.320297 203.052521,129.101837 
	C202.561020,129.141083 202.069534,129.180313 201.578033,129.219559 
	C201.436340,128.005219 201.294632,126.790878 201.070831,124.890747 
	C200.678238,122.460358 200.367767,120.715759 200.057312,118.971153 
	C199.786148,118.171944 199.514984,117.372726 199.097519,116.289017 
	C197.798584,111.514244 196.645966,107.023964 195.256912,102.264297 
z"/>
<path fill="#212121" opacity="1.000000" stroke="none" 
	d="
M199.807800,119.207245 
	C200.367767,120.715759 200.678238,122.460358 200.973602,124.602295 
	C197.178329,123.982513 197.870239,121.838440 199.807800,119.207245 
z"/>
<path fill="#474747" opacity="1.000000" stroke="none" 
	d="
M195.165833,97.631943 
	C195.019989,97.965179 194.826141,97.968628 194.341934,97.970795 
	C194.251312,97.662155 194.451035,97.354790 194.845154,96.843811 
	C195.065643,96.860832 195.091736,97.081482 195.165833,97.631943 
z"/>
<path fill="#262626" opacity="1.000000" stroke="none" 
	d="
M54.999847,73.999847 
	C54.872849,75.357193 54.745998,76.714699 54.619152,78.072197 
	C54.146553,77.994644 53.673954,77.917099 53.201355,77.839546 
	C53.587467,76.637619 53.973576,75.435684 54.679996,74.117035 
	C55.000305,74.000305 55.000000,74.000000 54.999847,73.999847 
z"/>
<path fill="#1F1F1F" opacity="1.000000" stroke="none" 
	d="
M109.042923,197.367432 
	C113.099968,197.886520 117.198181,198.788055 121.648140,199.846115 
	C121.628616,200.528137 121.106361,201.562668 120.908401,201.503937 
	C116.944557,200.328140 113.018097,199.026306 109.042923,197.367432 
z"/>
<path fill="#3B3B3B" opacity="1.000000" stroke="none" 
	d="
M93.780708,186.745102 
	C93.784874,187.244339 93.557846,187.505402 93.120667,187.922928 
	C79.278732,180.155273 70.776550,168.087265 65.085014,153.342499 
	C65.466103,152.987518 65.902824,152.993805 66.667236,152.999802 
	C67.508812,153.854401 68.022682,154.709305 68.739159,155.786301 
	C73.141953,162.685181 76.900909,169.702438 81.697914,175.918671 
	C84.879456,180.041504 89.547112,183.017532 93.780708,186.745102 
z"/>
<path fill="#2A2A2A" opacity="1.000000" stroke="none" 
	d="
M100.807014,68.794327 
	C106.235283,62.908768 113.889122,62.743481 120.923988,61.052387 
	C123.286011,60.484581 125.766006,60.407524 128.697754,60.459419 
	C131.543976,61.639996 133.841797,62.626110 136.231964,63.268826 
	C151.578598,67.395515 162.887100,76.193123 168.905548,91.210495 
	C172.757721,100.822525 174.217300,110.886223 172.603455,121.009903 
	C170.702698,132.933517 166.082779,144.063995 158.484177,153.523407 
	C153.740158,159.429138 148.191895,164.859268 139.993866,165.626465 
	C141.053497,162.507065 142.122803,159.762207 143.561340,157.015533 
	C150.845078,155.614120 154.148849,150.050095 157.510010,144.813522 
	C164.599640,133.768143 168.101868,121.722626 166.521027,108.476814 
	C165.494003,99.871422 163.223923,91.731941 157.482117,84.587738 
	C156.927643,83.215096 156.462219,82.132927 155.885010,80.717331 
	C149.344971,77.390091 143.147232,73.583237 136.411591,71.673584 
	C131.500229,70.281120 125.512962,70.166656 120.647865,71.625397 
	C108.660759,75.219582 99.826942,83.150284 95.202522,95.027275 
	C90.215660,107.835114 90.476837,120.535896 96.006226,133.318405 
	C99.028450,140.305023 102.783043,146.438034 108.081429,151.975327 
	C112.667320,156.768005 117.614204,160.051544 124.345505,160.988129 
	C124.544785,161.033035 124.937584,161.145370 124.933525,161.461975 
	C125.071526,162.174911 125.213585,162.571243 125.261398,163.313110 
	C125.571808,164.712677 125.976456,165.766708 126.002869,166.985962 
	C122.760910,166.938934 119.683601,167.332016 117.070312,166.409973 
	C105.564766,162.350449 98.589615,153.065033 92.819756,143.155212 
	C89.031021,136.647980 85.366653,129.330154 84.512009,122.039452 
	C83.441483,112.907112 84.659554,103.329796 86.091507,94.131622 
	C87.462013,85.328140 92.367851,78.000244 99.228035,72.104340 
	C100.076164,71.375435 100.296021,69.915504 100.807014,68.794327 
z"/>
<path fill="#282828" opacity="1.000000" stroke="none" 
	d="
M100.437408,68.827728 
	C100.296021,69.915504 100.076164,71.375435 99.228035,72.104340 
	C92.367851,78.000244 87.462013,85.328140 86.091507,94.131622 
	C84.659554,103.329796 83.441483,112.907112 84.512009,122.039452 
	C85.366653,129.330154 89.031021,136.647980 92.819756,143.155212 
	C98.589615,153.065033 105.564766,162.350449 117.070312,166.409973 
	C119.683601,167.332016 122.760910,166.938934 126.248550,167.087143 
	C127.157013,167.228821 127.441559,167.434570 127.762192,167.949707 
	C128.448151,169.539322 129.098007,170.819534 129.769318,172.441986 
	C130.145950,173.857620 130.501129,174.931015 130.434143,176.004715 
	C119.644234,175.962662 109.876930,174.143921 102.490486,166.020279 
	C98.511597,161.644302 94.644989,157.149002 90.978180,152.509567 
	C77.597153,135.579239 71.552597,116.307152 72.904144,94.744057 
	C78.902702,82.909203 87.473663,73.774040 100.437408,68.827728 
z"/>
<path fill="#282828" opacity="1.000000" stroke="none" 
	d="
M140.003525,166.001007 
	C148.191895,164.859268 153.740158,159.429138 158.484177,153.523407 
	C166.082779,144.063995 170.702698,132.933517 172.603455,121.009903 
	C174.217300,110.886223 172.757721,100.822525 168.905548,91.210495 
	C162.887100,76.193123 151.578598,67.395515 136.231964,63.268826 
	C133.841797,62.626110 131.543976,61.639996 129.112488,60.458878 
	C141.981018,59.511246 153.925293,63.114437 165.321732,68.932243 
	C165.875153,69.214752 166.245071,69.856674 166.700958,70.875351 
	C167.923401,74.220993 169.043137,77.073059 170.396591,79.809532 
	C171.701401,82.447655 173.607101,84.832123 174.626190,87.560577 
	C179.346359,100.198212 179.114029,112.982544 176.363205,126.122185 
	C173.459213,139.993484 167.635468,152.147171 158.168610,162.561417 
	C152.563400,168.727570 145.825760,173.031921 137.235443,173.336334 
	C137.466751,171.964355 137.695343,170.977554 138.095276,169.711578 
	C138.845596,168.288620 139.424561,167.144806 140.003525,166.001007 
z"/>
<path fill="#242424" opacity="1.000000" stroke="none" 
	d="
M72.632126,94.970108 
	C71.552597,116.307152 77.597153,135.579239 90.978180,152.509567 
	C94.644989,157.149002 98.511597,161.644302 102.490486,166.020279 
	C109.876930,174.143921 119.644234,175.962662 130.593201,176.332489 
	C131.478790,178.034882 131.783173,179.409775 132.087540,180.784683 
	C125.661415,183.771194 119.758614,181.145432 113.915222,178.911285 
	C99.519226,173.407150 89.998528,161.768265 79.940781,151.002121 
	C76.988960,147.842392 74.943024,143.246262 73.971069,138.970001 
	C72.626152,133.052811 68.069290,132.030853 63.431839,130.088623 
	C63.073406,129.563843 63.061607,129.115280 63.453537,128.330978 
	C65.413025,127.003906 66.968788,126.012550 68.524544,125.021202 
	C66.984070,124.011314 65.443596,123.001434 63.903130,121.991547 
	C64.201462,112.264198 66.627647,103.208427 72.632126,94.970108 
z"/>
<path fill="#262626" opacity="1.000000" stroke="none" 
	d="
M137.232727,173.721512 
	C145.825760,173.031921 152.563400,168.727570 158.168610,162.561417 
	C167.635468,152.147171 173.459213,139.993484 176.363205,126.122185 
	C179.114029,112.982544 179.346359,100.198212 174.626190,87.560577 
	C173.607101,84.832123 171.701401,82.447655 170.396591,79.809532 
	C169.043137,77.073059 167.923401,74.220993 166.898376,71.167389 
	C169.593384,72.415802 172.091492,73.916313 174.805878,76.058998 
	C175.475220,78.081520 175.866974,79.485710 176.392990,80.837654 
	C177.874176,84.644363 180.251053,88.319061 180.767212,92.244057 
	C182.298828,103.890617 183.231445,115.570892 180.263260,127.270744 
	C176.134598,143.544861 168.978699,158.021637 156.193314,169.164139 
	C150.294189,174.305237 143.664780,178.503571 135.377777,178.426544 
	C135.997803,176.627899 136.615265,175.174698 137.232727,173.721512 
z"/>
<path fill="#242424" opacity="1.000000" stroke="none" 
	d="
M135.375198,178.772003 
	C143.664780,178.503571 150.294189,174.305237 156.193314,169.164139 
	C168.978699,158.021637 176.134598,143.544861 180.263260,127.270744 
	C183.231445,115.570892 182.298828,103.890617 180.767212,92.244057 
	C180.251053,88.319061 177.874176,84.644363 176.392990,80.837654 
	C175.866974,79.485710 175.475220,78.081520 175.026947,76.307693 
	C177.252686,78.024124 179.473663,80.134041 181.879089,82.498436 
	C183.375671,90.408318 185.671829,98.045906 185.810730,105.722534 
	C186.188751,126.615257 179.386520,145.178970 166.904694,162.135208 
	C160.886459,170.310837 153.125732,175.403793 144.698334,179.925018 
	C142.107925,181.314758 138.469955,180.751877 135.012207,180.552582 
	C134.933578,179.605377 135.154388,179.188690 135.375198,178.772003 
z"/>
<path fill="#232323" opacity="1.000000" stroke="none" 
	d="
M63.830708,122.362938 
	C65.443596,123.001434 66.984070,124.011314 68.524544,125.021202 
	C66.968788,126.012550 65.413025,127.003906 63.473244,127.994980 
	C63.312244,126.241241 63.535267,124.487785 63.830708,122.362938 
z"/>
<path fill="#CFCFCF" opacity="1.000000" stroke="none" 
	d="
M135.377777,178.426544 
	C135.154388,179.188690 134.933578,179.605377 134.727249,180.261414 
	C134.086288,180.647522 133.430847,180.794296 132.431458,180.862885 
	C131.783173,179.409775 131.478790,178.034882 131.015366,176.332199 
	C130.501129,174.931015 130.145950,173.857620 130.147156,172.419647 
	C132.977005,171.366974 135.450470,170.678864 137.923935,169.990753 
	C137.695343,170.977554 137.466751,171.964355 137.235443,173.336334 
	C136.615265,175.174698 135.997803,176.627899 135.377777,178.426544 
z"/>
<path fill="#E4E4E4" opacity="1.000000" stroke="none" 
	d="
M124.937584,161.145370 
	C124.937584,161.145370 124.544785,161.033035 124.327164,160.625885 
	C123.622368,158.855453 123.135193,157.492203 122.852699,155.946045 
	C122.628662,155.205124 122.199936,154.647079 121.598999,154.069901 
	C121.426804,154.050751 121.090935,153.965485 121.071350,153.594574 
	C116.579292,142.851120 112.106827,132.478561 107.964035,121.942688 
	C110.955307,117.767616 113.876854,113.900764 116.213966,109.708122 
	C119.261269,104.241425 121.698471,98.437210 124.673294,92.926735 
	C127.233986,88.183395 130.180435,83.648308 133.264801,79.154770 
	C141.699570,86.906631 149.825836,94.524841 157.883514,102.493942 
	C156.252441,106.976852 154.949005,111.231827 153.060791,115.209183 
	C150.794037,119.983932 148.003754,124.508461 145.484756,129.165466 
	C139.438889,140.342743 134.352020,152.133286 124.937584,161.145370 
M145.071304,118.619736 
	C146.762375,115.449654 146.825729,112.284035 144.873276,109.221062 
	C141.843460,104.467911 138.764053,99.746002 135.667740,95.035774 
	C133.931061,92.393875 132.143814,93.007668 130.575150,95.182701 
	C126.891319,100.290565 123.192101,105.391747 119.693481,110.625572 
	C118.852913,111.883049 118.062943,113.862900 118.453461,115.143425 
	C121.057594,123.682343 123.897148,132.154190 126.896599,140.563492 
	C127.438393,142.082489 129.335983,144.437500 130.147400,144.263260 
	C131.786331,143.911316 133.661057,142.374710 134.467896,140.822266 
	C138.135727,133.764862 141.466171,126.532112 145.071304,118.619736 
z"/>
<path fill="#2E2E2E" opacity="1.000000" stroke="none" 
	d="
M121.090935,153.965485 
	C121.090935,153.965485 121.426804,154.050751 121.604126,154.360931 
	C122.070297,155.157043 122.359154,155.642990 122.648010,156.128937 
	C123.135193,157.492203 123.622368,158.855453 124.127892,160.580963 
	C117.614204,160.051544 112.667320,156.768005 108.081429,151.975327 
	C102.783043,146.438034 99.028450,140.305023 96.006226,133.318405 
	C90.476837,120.535896 90.215660,107.835114 95.202522,95.027275 
	C99.826942,83.150284 108.660759,75.219582 120.647865,71.625397 
	C125.512962,70.166656 131.500229,70.281120 136.411591,71.673584 
	C143.147232,73.583237 149.344971,77.390091 155.574677,80.791061 
	C154.373352,81.481850 153.370590,81.765495 151.971115,82.088203 
	C146.812103,83.102356 142.598877,82.200882 138.570755,79.254189 
	C136.762955,77.931732 134.119125,77.752129 131.615463,76.993240 
	C130.084686,77.349693 128.793121,77.766846 127.085739,78.147530 
	C120.847122,79.299530 115.965195,82.246933 111.357803,86.116043 
	C110.739571,85.725197 110.368416,85.387810 109.933014,84.789688 
	C109.249687,84.740334 108.630585,84.951714 107.864426,85.417603 
	C107.274010,86.903145 106.830658,88.134178 106.205688,89.712799 
	C102.350800,94.896477 99.571846,99.987549 101.246162,106.231583 
	C101.122147,106.079529 101.394928,106.361702 101.021011,106.303642 
	C99.603859,107.279564 98.560631,108.313545 97.517410,109.347519 
	C100.840820,112.454330 97.808434,116.248863 98.638420,119.679581 
	C100.914856,129.089127 103.756378,138.180832 111.091774,145.061493 
	C114.345779,148.113770 117.753174,151.002518 121.090935,153.965485 
z"/>
<path fill="#363636" opacity="1.000000" stroke="none" 
	d="
M131.854675,77.053925 
	C134.119125,77.752129 136.762955,77.931732 138.570755,79.254189 
	C142.598877,82.200882 146.812103,83.102356 151.955856,82.440765 
	C152.397385,87.613319 154.611633,87.164009 157.571167,84.878212 
	C163.223923,91.731941 165.494003,99.871422 166.521027,108.476814 
	C168.101868,121.722626 164.599640,133.768143 157.510010,144.813522 
	C154.148849,150.050095 150.845078,155.614120 143.541473,156.637558 
	C148.805923,140.510498 154.384598,124.731995 160.175613,109.031799 
	C161.348557,105.851784 161.182495,103.641586 157.952118,102.143059 
	C149.825836,94.524841 141.699570,86.906631 133.175613,78.881317 
	C132.470184,78.000786 132.162430,77.527351 131.854675,77.053925 
z"/>
<path fill="#DDDDDD" opacity="1.000000" stroke="none" 
	d="
M157.883514,102.493942 
	C161.182495,103.641586 161.348557,105.851784 160.175613,109.031799 
	C154.384598,124.731995 148.805923,140.510498 143.172241,156.639374 
	C142.122803,159.762207 141.053497,162.507065 139.993866,165.626465 
	C139.424561,167.144806 138.845596,168.288620 138.095276,169.711578 
	C135.450470,170.678864 132.977005,171.366974 130.125702,172.077423 
	C129.098007,170.819534 128.448151,169.539322 127.820999,167.570908 
	C127.014351,165.577667 126.184998,164.272629 125.355644,162.967575 
	C125.213585,162.571243 125.071526,162.174911 124.933525,161.461975 
	C134.352020,152.133286 139.438889,140.342743 145.484756,129.165466 
	C148.003754,124.508461 150.794037,119.983932 153.060791,115.209183 
	C154.949005,111.231827 156.252441,106.976852 157.883514,102.493942 
z"/>
<path fill="#CFCFCF" opacity="1.000000" stroke="none" 
	d="
M157.482117,84.587738 
	C154.611633,87.164009 152.397385,87.613319 152.352570,82.401695 
	C153.370590,81.765495 154.373352,81.481850 155.686447,81.124481 
	C156.462219,82.132927 156.927643,83.215096 157.482117,84.587738 
z"/>
<path fill="#CFCFCF" opacity="1.000000" stroke="none" 
	d="
M125.261398,163.313110 
	C126.184998,164.272629 127.014351,165.577667 127.784904,167.261505 
	C127.441559,167.434570 127.157013,167.228821 126.626778,166.921906 
	C125.976456,165.766708 125.571808,164.712677 125.261398,163.313110 
z"/>
<path fill="#EEEEEE" opacity="1.000000" stroke="none" 
	d="
M144.994629,118.991089 
	C141.466171,126.532112 138.135727,133.764862 134.467896,140.822266 
	C133.661057,142.374710 131.786331,143.911316 130.147400,144.263260 
	C129.335983,144.437500 127.438393,142.082489 126.896599,140.563492 
	C123.897148,132.154190 121.057594,123.682343 118.453461,115.143425 
	C118.062943,113.862900 118.852913,111.883049 119.693481,110.625572 
	C123.192101,105.391747 126.891319,100.290565 130.575150,95.182701 
	C132.143814,93.007668 133.931061,92.393875 135.667740,95.035774 
	C138.764053,99.746002 141.843460,104.467911 144.873276,109.221062 
	C146.825729,112.284035 146.762375,115.449654 144.994629,118.991089 
z"/>
<path fill="#DDDDDD" opacity="1.000000" stroke="none" 
	d="
M131.615463,76.993240 
	C132.162430,77.527351 132.470184,78.000786 132.867126,78.747681 
	C130.180435,83.648308 127.233986,88.183395 124.673294,92.926735 
	C121.698471,98.437210 119.261269,104.241425 116.213966,109.708122 
	C113.876854,113.900764 110.955307,117.767616 107.728355,121.698822 
	C105.240318,116.532761 103.317627,111.447227 101.394928,106.361702 
	C101.394928,106.361702 101.122147,106.079529 101.535019,106.066238 
	C110.465775,96.763298 118.983665,87.473648 127.501556,78.184006 
	C128.793121,77.766846 130.084686,77.349693 131.615463,76.993240 
z"/>
<path fill="#363636" opacity="1.000000" stroke="none" 
	d="
M101.021011,106.303642 
	C103.317627,111.447227 105.240318,116.532761 107.398697,121.862152 
	C112.106827,132.478561 116.579292,142.851120 121.071350,153.594574 
	C117.753174,151.002518 114.345779,148.113770 111.091774,145.061493 
	C103.756378,138.180832 100.914856,129.089127 98.638420,119.679581 
	C97.808434,116.248863 100.840820,112.454330 97.517410,109.347519 
	C98.560631,108.313545 99.603859,107.279564 101.021011,106.303642 
z"/>
<path fill="#DDDDDD" opacity="1.000000" stroke="none" 
	d="
M122.852699,155.946045 
	C122.359154,155.642990 122.070297,155.157043 121.776321,154.380066 
	C122.199936,154.647079 122.628662,155.205124 122.852699,155.946045 
z"/>
<path fill="#363636" opacity="1.000000" stroke="none" 
	d="
M127.085739,78.147537 
	C118.983665,87.473648 110.465775,96.763298 101.659027,106.218292 
	C99.571846,99.987549 102.350800,94.896477 106.509224,89.877380 
	C111.119591,91.904976 112.021950,89.900131 111.604881,86.169487 
	C115.965195,82.246933 120.847122,79.299530 127.085739,78.147537 
z"/>
<path fill="#CFCFCF" opacity="1.000000" stroke="none" 
	d="
M111.357803,86.116043 
	C112.021950,89.900131 111.119591,91.904976 106.690842,89.529793 
	C106.830658,88.134178 107.274010,86.903145 108.197151,85.458862 
	C109.117043,85.180550 109.557152,85.115486 109.997253,85.050423 
	C110.368416,85.387810 110.739571,85.725197 111.357803,86.116043 
z"/>
<path fill="#363636" opacity="1.000000" stroke="none" 
	d="
M109.933014,84.789688 
	C109.557152,85.115486 109.117043,85.180550 108.344215,85.204346 
	C108.630585,84.951714 109.249687,84.740334 109.933014,84.789688 
z"/>
</svg>